<?xml version="1.0" standalone="no"?>
<!DOCTYPE svg PUBLIC "-//W3C//DTD SVG 20010904//EN"
 "http://www.w3.org/TR/2001/REC-SVG-20010904/DTD/svg10.dtd">
<svg version="1.0" xmlns="http://www.w3.org/2000/svg"
 width="1858.000000pt" height="1858.000000pt" viewBox="0 0 1858.000000 1858.000000"
 preserveAspectRatio="xMidYMid meet">
<metadata>
Created by potrace 1.14, written by Peter Selinger 2001-2017
</metadata>
<g transform="translate(0.000000,1858.000000) scale(0.100000,-0.100000)"
fill="#000000" stroke="none">
<path d="M8935 18269 c-1346 -61 -2675 -432 -3855 -1077 -144 -79 -286 -160
-370 -212 -8 -5 -44 -27 -80 -49 -227 -138 -822 -562 -900 -641 -3 -3 -45 -39
-95 -80 -49 -41 -92 -77 -95 -80 -3 -3 -59 -53 -125 -110 -66 -58 -136 -121
-156 -140 -19 -19 -89 -87 -155 -151 -181 -177 -315 -318 -469 -494 -77 -88
-142 -162 -145 -165 -35 -30 -331 -417 -457 -595 -158 -226 -375 -567 -466
-735 -16 -30 -38 -68 -47 -85 -188 -323 -457 -920 -603 -1340 -270 -772 -413
-1458 -489 -2340 -17 -203 -17 -1087 0 -1290 76 -881 225 -1594 492 -2350 146
-414 407 -998 576 -1288 19 -32 34 -60 34 -63 0 -10 272 -457 346 -569 130
-196 357 -510 467 -645 292 -359 532 -621 848 -925 91 -88 138 -130 298 -270
18 -16 39 -35 45 -40 32 -30 265 -221 356 -291 261 -201 631 -454 905 -616
1033 -613 2218 -1021 3405 -1172 2055 -262 4094 175 5845 1252 412 254 857
582 1189 877 274 243 419 383 646 624 159 169 133 141 245 271 49 58 92 107
95 110 5 5 82 98 107 130 6 8 31 40 56 70 176 221 401 539 557 790 805 1287
1261 2721 1350 4243 13 229 13 785 0 1014 -72 1230 -381 2395 -924 3483 -98
196 -118 234 -200 378 -20 35 -36 65 -36 67 0 2 -22 40 -50 84 -28 44 -50 82
-50 85 0 7 -172 276 -255 399 -114 169 -358 502 -410 561 -6 6 -40 47 -75 91
-58 71 -94 114 -125 149 -5 6 -39 45 -75 86 -231 266 -524 561 -790 795 -69
60 -130 114 -136 120 -6 5 -35 30 -64 55 -29 25 -58 50 -64 55 -23 22 -283
224 -400 309 -177 130 -474 330 -636 426 -8 5 -46 28 -85 51 -257 154 -669
366 -960 494 -1251 551 -2632 806 -4020 744z"/>
</g>
</svg>
